<svg width="60" height="60" viewBox="0 0 60 60" fill="none" xmlns="http://www.w3.org/2000/svg">
<path fill-rule="evenodd" clip-rule="evenodd" d="M16.9252 45.7492C16.9861 45.8642 17.0541 45.9542 17.143 46.0535C17.4664 46.4144 17.558 46.5037 17.9453 46.817C18.5438 47.3013 19.1709 47.677 19.8285 48.0661C20.5947 48.5192 21.1353 48.7394 21.9133 49.1131C23.5462 49.8976 26.7449 50.9344 28.4789 50.9344H29.2792C29.2792 48.9976 29.3388 49.135 28.2993 49.0261C27.5004 48.9421 27.3158 48.9423 26.5036 48.7683C25.3567 48.5225 24.3342 48.208 23.3331 47.7979C22.4114 47.42 21.4713 46.8774 20.6767 46.3478L18.8737 45.0536C18.6832 44.9079 18.4816 44.7341 18.2825 44.6008C17.9233 44.6846 17.0655 45.5398 16.9252 45.7492Z" fill="#AAD4D0"/>
<path fill-rule="evenodd" clip-rule="evenodd" d="M10.0348 32.1423C10.0348 32.7999 10.1459 33.4625 10.2387 34.0265C10.4176 35.1157 10.7778 36.3529 11.144 37.3667C11.6583 38.7903 12.0967 39.6465 12.8188 40.9816C13.2512 41.7807 14.5135 43.606 15.1157 44.0092C15.5765 43.9018 16.3132 43.0061 16.3336 42.8258C16.3515 42.6682 15.3333 41.3651 15.1265 41.1097C14.7005 40.5835 14.2953 39.9325 13.9904 39.3227C13.6585 38.6586 13.3357 38.0216 13.062 37.328C12.8206 36.7162 12.5112 35.7572 12.3592 35.1076C12.2342 34.5736 11.8097 32.3745 11.8097 31.7247C11.5889 31.7247 11.5191 31.6899 11.2877 31.6899H10.0348V32.1423Z" fill="#AAD4D0"/>
<path fill-rule="evenodd" clip-rule="evenodd" d="M44.5912 18.0831C45.2913 19.4064 46.0361 19.5698 47.6071 22.9321C48.2897 24.393 48.9457 26.7413 49.0774 28.3521C49.1016 28.6477 49.15 29.0002 49.15 29.2886C49.3554 29.2886 49.4641 29.2525 49.7065 29.2536L50.8918 29.2531C51.0192 29.2281 50.9809 29.1856 50.9596 28.7667C50.9429 28.438 50.8893 28.0359 50.8446 27.6984C50.4556 24.7535 49.52 22.2821 47.9906 19.7297C47.8355 19.4709 47.7014 19.2513 47.5355 19.0016C47.3682 18.75 47.1989 18.5325 47.0222 18.297L46.2317 17.2779C46.1644 17.1939 46.0148 16.9834 45.9484 16.9348C45.6871 16.9956 45.3782 17.2704 45.2082 17.4474L44.9131 17.7786C44.837 17.8543 44.631 18.0289 44.5912 18.0831Z" fill="#AAD4D0"/>
<path fill-rule="evenodd" clip-rule="evenodd" d="M31.7152 10.1141C31.7152 11.9906 31.5904 11.7897 32.0384 11.8439C32.2152 11.8654 32.3015 11.8742 32.4745 11.895C34.3838 12.1255 36.1255 12.5467 37.8652 13.2905C38.2877 13.4709 38.7833 13.6872 39.1556 13.9139L40.404 14.6142C41.0202 14.9816 41.5827 15.3495 42.1312 15.8105C42.2434 15.9047 42.2853 15.9328 42.3901 16.0385C42.478 16.1274 42.5438 16.2076 42.6423 16.2735L42.532 16.4074L43.0947 16.4127C43.1981 15.9689 43.6902 15.5991 44.0342 15.3687V14.9164C43.6228 15.0149 43.784 14.8277 43.3332 14.4691C43.2296 14.3865 43.1696 14.3152 43.0554 14.2249C42.9455 14.1378 42.8552 14.0672 42.7418 13.9817C42.3368 13.676 41.8964 13.3852 41.4482 13.1177C41.0214 12.8633 40.5208 12.5481 40.0789 12.3295C38.9164 11.7539 38.3295 11.4619 37.0528 11.0402C35.8888 10.6559 34.8484 10.3537 33.6145 10.1634C33.3012 10.1152 32.9581 10.0712 32.653 10.0462C32.4794 10.0321 32.3221 10.0566 32.1473 10.0297C32.0072 10.0079 31.7152 9.9448 31.7152 10.1141Z" fill="#AAD4D0"/>
<path fill-rule="evenodd" clip-rule="evenodd" d="M44.6608 42.8258C44.6608 43.0325 45.1203 43.6242 45.5194 43.8466C46.1235 44.1833 46.0162 44.0815 46.4495 43.4316L47.7439 41.4896C47.8955 41.2633 48.0252 41.0667 48.1644 40.8312C48.4784 40.3004 49.1018 39.2739 49.334 38.7295C49.9377 37.3148 50.0915 36.9649 50.4587 35.5041C50.6846 34.6051 50.8814 33.2022 50.9575 32.21C50.9646 32.1187 50.9549 32.031 50.9647 31.9386C50.976 31.8337 50.9938 31.8388 50.9944 31.6968V31.6899L49.4985 31.7949C48.972 31.803 49.2044 31.7548 49.1006 32.4759C49.0163 33.0638 49.0208 33.2511 48.8916 33.9373C48.5151 35.938 47.575 38.5552 46.4493 40.2298L44.8541 42.4623C44.7957 42.5382 44.6608 42.724 44.6608 42.8258Z" fill="#AAD4D0"/>
<path fill-rule="evenodd" clip-rule="evenodd" d="M16.96 15.1601C17.0095 15.2171 17.12 15.4402 17.2969 15.6582C17.3543 15.729 17.3571 15.7465 17.42 15.8137C17.5179 15.9183 17.7872 16.1061 17.9693 16.378C18.6019 16.0434 18.6035 16.0416 19.1823 15.6075C19.8993 15.0694 20.7922 14.4061 21.5881 14.0113L22.2614 13.6755C23.8963 12.8559 25.7648 12.2822 27.6378 12.0223L28.8895 11.7776C29.0181 11.743 29.1571 11.6738 29.2792 11.6453V10.0098C27.6085 10.0098 25.3747 10.575 23.82 11.0928C22.33 11.5892 21.3984 12.0634 20.0688 12.7704C19.1491 13.2595 18.2905 13.9189 17.487 14.5734C17.0362 14.9404 17.2959 14.6585 16.96 15.1601Z" fill="#AAD4D0"/>
<path fill-rule="evenodd" clip-rule="evenodd" d="M31.75 49.1594V50.9691C33.8805 50.9691 36.4414 50.2346 38.4119 49.4529C38.5706 49.39 38.6406 49.3497 38.7996 49.284C39.4977 48.9956 40.9321 48.1884 41.6053 47.7396C41.8367 47.5853 42.0134 47.4555 42.2348 47.2903C42.7609 46.8977 43.2215 46.4491 43.7503 46.0567C43.8746 45.9647 43.99 45.9368 44.0692 45.8186C43.9039 45.7746 42.9838 44.781 42.8163 44.6355L41.7376 45.5054C39.2602 47.3672 35.6973 48.7049 32.6229 49.058C32.4963 49.0725 32.3343 49.0896 32.1878 49.1101C32.0093 49.135 31.9055 49.1232 31.75 49.1594Z" fill="#AAD4D0"/>
<path fill-rule="evenodd" clip-rule="evenodd" d="M10.8353 29.254H11.8445C11.8445 28.6681 11.9469 28.0177 12.0202 27.481C12.0947 26.9353 12.21 26.3636 12.3387 25.8507C12.5257 25.105 12.7587 24.3543 13.0473 23.636C13.6709 22.083 14.5361 20.6381 15.528 19.2959C15.6945 19.0708 16.2408 18.3322 16.2988 18.0833C16.1842 17.912 15.2012 17.0269 15.1157 16.9697C15.0522 17.0643 14.9444 17.1819 14.8676 17.2784L14.1111 18.227C13.3306 19.2066 12.3777 20.581 11.894 21.752C11.7761 22.0372 11.6734 22.2673 11.5514 22.5578C10.9171 24.0675 10.254 26.2342 10.1054 27.9674C10.0916 28.1288 10.0796 28.3005 10.0547 28.4735C10.0287 28.6547 10.0313 28.8681 10.0075 29.022C10.0043 29.042 10.002 29.0607 10 29.0782V29.2003C10.0338 29.3868 10.276 29.254 10.8353 29.254Z" fill="#AAD4D0"/>
<path fill-rule="evenodd" clip-rule="evenodd" d="M41.5288 21.2152C41.5593 21.3298 41.7356 21.5256 41.8121 21.6279L42.4057 22.4611C43.4327 24.0016 43.9297 25.1928 44.3152 27.0591C44.3433 27.1951 44.7247 29.2539 45.0088 29.2539H46.6095C46.6095 28.2086 46.1554 26.1583 45.8135 25.2128L45.471 24.3372C45.4254 24.222 45.3995 24.1528 45.3454 24.0454C44.7367 22.8397 44.6825 22.6344 43.8886 21.4653L43.1944 20.524C43.124 20.4296 42.8887 20.1198 42.8163 20.0669C42.4605 20.1619 41.7659 20.861 41.5288 21.2152Z" fill="#AAD4D0"/>
<path fill-rule="evenodd" clip-rule="evenodd" d="M19.9876 42.8955L21.8602 44.1203C22.1861 44.3292 22.4799 44.5263 22.8292 44.7172C23.6404 45.1601 24.1043 45.3993 24.9684 45.71C25.9645 46.068 27.9132 46.5842 28.966 46.5842C29.127 46.5842 29.2298 46.4751 29.2727 46.3692C29.372 46.1246 29.2804 45.6158 29.2778 45.4025C29.2755 45.2179 29.2792 45.0295 29.2792 44.8443C29.1353 44.8412 28.8528 44.7645 28.7014 44.7262C27.7819 44.4926 26.7796 44.366 25.8295 44.0483C24.7325 43.6814 23.872 43.3052 22.9244 42.6733C22.679 42.5097 21.3933 41.5383 21.2057 41.5383C21.1023 41.5383 20.5923 42.0652 20.5182 42.1386C20.2681 42.3865 20.1549 42.5797 19.9876 42.8955Z" fill="#AAD4D0"/>
<path fill-rule="evenodd" clip-rule="evenodd" d="M31.7152 16.1693C31.8859 16.1693 32.1448 16.2256 32.3216 16.2591C33.786 16.5359 34.8622 16.7846 36.2596 17.3669C37.1242 17.7273 37.856 18.3009 38.65 18.5608C38.931 18.6528 38.8712 18.9629 39.4286 19.2438L39.9279 19.4752C40.0321 19.2784 40.0671 19.2867 40.2313 19.1522C40.4067 19.0083 40.3795 18.9533 40.4853 18.7797C40.5928 18.6029 40.7442 18.5903 40.8193 18.4873C40.8519 18.4423 40.931 18.0526 40.9373 17.9789C39.4266 17.1795 38.4587 16.2923 36.8907 15.6221C35.4245 14.9954 33.415 14.3945 31.7152 14.3945V16.1693Z" fill="#AAD4D0"/>
<path fill-rule="evenodd" clip-rule="evenodd" d="M31.7152 44.9138V46.5841C34.204 46.5841 35.9971 45.8494 38.0488 44.7398L39.0651 44.1206C39.2322 44.0083 39.3839 43.9078 39.5452 43.8003C39.7152 43.6868 39.8674 43.5762 40.0392 43.4592C40.1837 43.3607 40.8824 42.8898 40.9719 42.7562L40.1285 41.8251C40.0282 41.726 39.8971 41.6483 39.8583 41.5034C39.7482 41.5292 38.0099 42.6862 37.6641 42.8936C36.4786 43.6039 35.4298 44.0091 34.0469 44.357L32.2573 44.7251C32.0966 44.7542 31.7152 44.7567 31.7152 44.9138Z" fill="#AAD4D0"/>
<path fill-rule="evenodd" clip-rule="evenodd" d="M45.1828 31.7247H44.8C44.7945 31.9715 44.6736 32.656 44.6262 32.9431C44.2676 35.1163 43.3633 37.0985 42.1621 38.9006L41.5636 39.7286C41.6544 39.8645 41.8499 40.0216 41.9729 40.1547L42.4074 40.6249C42.5075 40.7248 42.6384 40.8015 42.6771 40.9467C42.8464 40.9326 43.0066 40.7111 43.1094 40.5787C43.3827 40.227 43.7295 39.8641 44.0067 39.4227C44.0673 39.3264 44.1029 39.2592 44.1666 39.165L44.7652 38.1279C45.1393 37.3756 45.4989 36.6395 45.7702 35.8271C46.0647 34.9462 46.3014 34.1417 46.4508 33.2016L46.6095 31.6899C46.0934 31.6899 45.7016 31.7247 45.1828 31.7247Z" fill="#AAD4D0"/>
<path fill-rule="evenodd" clip-rule="evenodd" d="M20.0572 18.2571C20.1401 18.3808 20.9721 19.0716 21.1972 19.2747C21.2591 19.3307 21.316 19.3628 21.3797 19.4054C21.4499 19.3004 21.4799 19.3018 21.5776 19.2206C21.6626 19.1498 21.7198 19.1009 21.8051 19.0305C22.0939 18.7924 22.4435 18.5885 22.7574 18.3821L23.5261 17.9327C23.628 17.8757 23.7005 17.8492 23.8041 17.7933C24.3109 17.5204 24.9501 17.2031 25.4986 17.017C26.4912 16.6804 27.014 16.5101 28.0856 16.3326C29.3985 16.1151 29.2798 16.3666 29.278 15.1611C29.2766 14.2612 29.477 14.4292 28.4092 14.4292C27.2971 14.4292 25.7443 14.935 24.7598 15.3384C24.2455 15.5494 23.4664 15.9062 22.957 16.1806C22.2384 16.5675 20.4779 17.6288 20.0572 18.2571Z" fill="#AAD4D0"/>
<path fill-rule="evenodd" clip-rule="evenodd" d="M18.2129 40.9466C18.4826 40.8745 19.0044 40.3765 19.2077 40.0971C19.3103 39.956 19.353 39.8408 19.4308 39.6937C18.5288 38.3468 18.0369 37.8441 17.3072 36.1799C16.8912 35.2315 16.2721 33.1496 16.2312 32.0012C16.2261 31.8632 16.2738 31.7246 16.1248 31.7246H14.3501C14.3529 31.8542 14.3755 31.9114 14.3861 32.0714C14.3946 32.199 14.4107 32.2995 14.4299 32.4451C14.5894 33.6589 14.8145 34.6309 15.1984 35.783C15.3453 36.2242 15.4874 36.5511 15.6575 36.9596C15.9139 37.5756 16.4553 38.5173 16.8208 39.0675C17.0382 39.3951 17.2855 39.6855 17.5218 40.002C17.6142 40.1257 18.1795 40.8214 18.2129 40.9466Z" fill="#AAD4D0"/>
<path fill-rule="evenodd" clip-rule="evenodd" d="M14.3849 29.2539H16.2292C16.2292 27.6432 16.7541 26.1532 17.3477 24.7001C17.7328 23.757 18.3147 22.8951 18.8738 22.0503C18.9719 21.9021 19.0588 21.794 19.154 21.6343C19.2375 21.4948 19.3536 21.3628 19.396 21.1804C19.2802 21.0076 18.4313 20.1898 18.2477 20.0669C17.8348 20.3433 17.0793 21.402 16.7926 21.8483C15.6518 23.6253 14.9441 25.6683 14.5442 27.7776C14.46 28.2216 14.3849 28.7559 14.3849 29.2539Z" fill="#AAD4D0"/>
<path fill-rule="evenodd" clip-rule="evenodd" d="M23.0848 21.1804C23.0848 21.4777 23.5116 21.9962 23.8568 22.2181C24.3379 22.5272 24.2795 22.4855 24.8925 22.1181C25.0946 21.9969 25.2857 21.8733 25.4968 21.748C29.2821 19.5043 29.2792 21.8245 29.2792 18.7096C28.8907 18.7096 28.7896 18.6672 28.2985 18.7381C27.9856 18.7834 27.6789 18.8411 27.404 18.9225C25.9641 19.3488 24.9448 19.8066 23.6832 20.6654C23.5955 20.7251 23.0848 21.1146 23.0848 21.1804Z" fill="#AAD4D0"/>
<path fill-rule="evenodd" clip-rule="evenodd" d="M18.6305 31.7248L18.7366 32.6974C18.8526 33.5382 19.1575 34.4498 19.5236 35.1816C19.9406 36.015 20.2384 36.5126 20.6987 37.2777C20.7921 37.433 21.0634 37.8471 21.1013 37.9888C21.4617 37.8925 22.2721 37.101 22.4932 36.7707C22.3934 36.5821 22.3133 36.3842 22.2003 36.1937C22.0831 35.9963 21.9815 35.817 21.86 35.6293C21.0934 34.4434 20.717 33.4413 20.4995 32.0134C20.4453 31.6572 20.5648 31.69 20.0572 31.69C19.5384 31.69 19.1465 31.7248 18.6305 31.7248Z" fill="#AAD4D0"/>
<path fill-rule="evenodd" clip-rule="evenodd" d="M40.6587 31.7247C40.179 32.6314 40.1402 34.1077 39.2341 35.6245C38.838 36.2874 38.607 36.335 38.4316 36.5966C38.5639 36.6853 39.4655 37.7377 39.6843 37.8844C39.807 37.8515 39.7449 37.8647 39.8357 37.7922C39.8976 37.7426 39.9332 37.719 39.9892 37.6673C40.1068 37.5586 40.1503 37.4939 40.2519 37.3732C41.3584 36.0572 42.3292 33.3589 42.3292 31.6899C41.7339 31.6899 41.2587 31.7247 40.6587 31.7247Z" fill="#AAD4D0"/>
<path fill-rule="evenodd" clip-rule="evenodd" d="M23.05 39.6938C23.7949 40.8064 26.0489 41.6118 27.4072 41.9836C27.7094 42.0663 28.0021 42.1357 28.3076 42.1965C28.5923 42.2533 28.957 42.3386 29.2792 42.3386V41.0163C29.2792 40.7 29.1677 40.5543 28.92 40.4706C28.3845 40.2895 27.721 40.2846 26.6986 39.8733C26.2382 39.6883 25.8847 39.4601 25.4748 39.2178C24.3045 38.5256 24.4085 38.3805 23.8946 38.7637C23.5057 39.0537 23.3944 39.2664 23.1294 39.5993C23.0989 39.6376 23.0755 39.6645 23.05 39.6938Z" fill="#AAD4D0"/>
<path fill-rule="evenodd" clip-rule="evenodd" d="M38.536 24.1037C38.5647 24.2271 38.7794 24.5591 38.8496 24.6948C39.182 25.3367 39.4443 25.8129 39.7443 26.5145C39.9417 26.9761 40.0711 27.3556 40.1994 27.8691C40.3323 28.4011 40.3974 28.7599 40.6587 29.2539C40.9868 29.2539 42.1371 29.1965 42.3292 29.2887C42.3292 27.7554 41.7052 26.0863 40.9353 24.8016C40.8671 24.6877 40.7933 24.5719 40.7285 24.4516C40.6007 24.2151 40.4601 24.0222 40.3339 23.7673C40.2492 23.5962 40.0119 23.1975 39.9975 23.0249C39.45 23.1523 38.7912 23.7227 38.536 24.1037Z" fill="#AAD4D0"/>
<path fill-rule="evenodd" clip-rule="evenodd" d="M31.7152 40.6335V42.3038C32.7999 42.3038 33.5835 42.0787 34.5209 41.7688C35.6871 41.3831 37.1498 40.608 37.9445 39.6938C37.7905 39.464 37.6073 39.3644 37.4655 39.2331C37.2467 39.0308 36.849 38.6278 36.6219 38.4758C36.2494 39.18 35.1229 39.5119 34.4195 39.7881C34.2003 39.8742 33.9956 39.945 33.7683 40.007C33.1117 40.1866 32.7403 40.328 32.0131 40.479C31.8788 40.5069 31.7152 40.501 31.7152 40.6335Z" fill="#AAD4D0"/>
<path fill-rule="evenodd" clip-rule="evenodd" d="M18.6305 29.2539H20.4747L20.5888 28.4978C20.7054 27.8231 20.9346 27.1132 21.2287 26.5279C21.4351 26.1174 21.6246 25.7918 21.8427 25.402C21.927 25.2514 22.4236 24.3498 22.4236 24.2428C22.4236 24.133 21.5621 23.3202 21.3748 23.1688C21.302 23.1102 21.283 23.0766 21.2057 23.0249C20.9104 23.4655 20.6181 23.8793 20.3212 24.3329C20.1716 24.5615 20.0509 24.7697 19.9111 25.0015C19.8387 25.1212 19.777 25.2441 19.7108 25.3579C19.6488 25.4645 19.5779 25.6059 19.5252 25.7291C19.1664 26.5698 18.9155 27.3249 18.7596 28.2695C18.7178 28.5241 18.6305 28.9624 18.6305 29.2539Z" fill="#AAD4D0"/>
<path fill-rule="evenodd" clip-rule="evenodd" d="M31.7152 20.4148C33.2249 20.7665 35.2552 21.2651 36.4749 22.2671C36.5525 22.3308 36.6542 22.4195 36.7263 22.4678L37.1891 22.0257C37.4903 21.7738 37.7081 21.5611 37.9097 21.1803L36.9841 20.505C36.4658 20.1602 35.7939 19.7617 35.2296 19.5104C34.2836 19.0891 32.8101 18.6399 31.7152 18.6399V20.4148Z" fill="#AAD4D0"/>
<path fill-rule="evenodd" clip-rule="evenodd" d="M35.3344 27.4443C35.3344 27.6628 35.9041 28.9906 35.926 29.2538C36.2392 29.2538 36.5523 29.2546 36.8657 29.2538C37.2139 29.253 37.4421 29.2886 37.8052 29.2886C37.8052 28.5478 37.1303 26.6481 36.5523 26.261C36.306 26.3915 36.0555 26.5602 35.864 26.7561C35.7952 26.8262 35.3344 27.3934 35.3344 27.4443Z" fill="#AAD4D0"/>
<path fill-rule="evenodd" clip-rule="evenodd" d="M23.1544 31.7247C23.186 32.1042 23.5171 33.0998 23.6376 33.434C23.8698 34.079 24.044 34.3458 24.5117 34.7523C24.7954 34.5624 25.4892 33.846 25.6948 33.7084C25.6337 33.5808 25.5077 32.7201 25.0272 31.94C24.9776 31.8592 24.9189 31.7812 24.8945 31.6899C24.5652 31.6899 24.3766 31.7261 24.0593 31.725C23.7577 31.7238 23.456 31.7247 23.1544 31.7247Z" fill="#AAD4D0"/>
<path fill-rule="evenodd" clip-rule="evenodd" d="M26.2168 24.5907C26.5431 24.8092 27.0853 25.5403 27.3303 25.7043L29.2444 24.9735L29.2792 23.2336C28.492 23.2336 28.0736 23.3988 27.42 23.6711C26.957 23.8637 26.4883 24.1854 26.2168 24.5907Z" fill="#AAD4D0"/>
<path fill-rule="evenodd" clip-rule="evenodd" d="M26.2168 36.6662C26.2995 36.6884 26.4301 36.7696 26.5152 36.8204C27.1032 37.1707 28.1515 37.7103 28.8268 37.7103H29.2792V36.1442C29.2792 36.0265 29.0859 35.9834 28.8669 35.8953C28.6186 35.7957 27.5265 35.3091 27.4347 35.3091C27.338 35.3091 26.8131 35.7986 26.7303 35.8922C26.6343 36.0009 26.541 36.1269 26.4549 36.2431C26.3461 36.3898 26.3009 36.5074 26.2168 36.6662Z" fill="#AAD4D0"/>
<path fill-rule="evenodd" clip-rule="evenodd" d="M36.0303 31.7247C35.8786 32.0118 35.6354 32.6782 35.4726 33.0463C35.4115 33.1849 35.3373 33.3374 35.2996 33.4996L36.5441 34.7258C36.7935 34.554 37.2219 33.6949 37.3538 33.3962C37.4689 33.1357 37.5471 32.8971 37.6354 32.599C37.6904 32.4138 37.8052 31.9188 37.8052 31.6899C37.1879 31.6899 36.6665 31.7247 36.0303 31.7247Z" fill="#AAD4D0"/>
<path fill-rule="evenodd" clip-rule="evenodd" d="M31.7152 36.0049V37.8146L32.6135 37.6341C33.6299 37.3585 33.9801 37.0959 34.7777 36.5617L33.4551 35.3438C33.1504 35.4147 31.9234 35.9564 31.7152 36.0049Z" fill="#AAD4D0"/>
<path fill-rule="evenodd" clip-rule="evenodd" d="M31.7152 24.9736C31.9822 24.9958 32.8125 25.3642 33.072 25.4961C33.615 25.7722 33.6215 25.6038 33.9156 25.3644C34.201 25.132 34.424 24.8943 34.654 24.6063C34.7322 24.5084 34.7464 24.5336 34.7777 24.4168C34.4214 24.2416 33.3028 23.5991 33.142 23.5469C33.0435 23.5469 31.8 23.2046 31.7152 23.1641V24.9736Z" fill="#AAD4D0"/>
<path fill-rule="evenodd" clip-rule="evenodd" d="M23.1892 29.2888L24.9641 29.254C24.9743 29.1303 25.397 28.0845 25.4762 27.8871C25.5423 27.7231 25.5898 27.5558 25.66 27.4097L24.4852 26.2529C24.3318 26.4776 24.2009 26.6927 24.0523 26.9155L23.6298 27.5717C23.4524 27.9032 23.1892 28.7955 23.1892 29.2888Z" fill="#AAD4D0"/>
<rect x="1" y="1" width="58" height="58" rx="4" stroke="#AAD4D0" stroke-width="2"/>
</svg>
