<svg width="60" height="60" viewBox="0 0 60 60" fill="none" xmlns="http://www.w3.org/2000/svg">
<path fill-rule="evenodd" clip-rule="evenodd" d="M26.6275 16.9413C21.1113 17.4167 14.2519 19.3073 11.4353 22.6256C10.2086 24.0708 4.39579 27.1419 6.42659 32.9349C7.78116 36.799 12.2211 39.3987 16.8015 40.9486C25.9875 44.057 39.6649 43.6565 47.9696 38.8359C52.3655 36.2842 55.6892 32.0794 53.078 27.3299C51.795 24.9964 50.0514 24.1937 48.6349 22.7038C47.1453 21.1374 45.4489 20.0749 42.9769 19.055C38.4331 17.1806 32.0999 16.4696 26.6275 16.9413Z" fill="#AAD4D0"/>
<path fill-rule="evenodd" clip-rule="evenodd" d="M26.7311 18.2525C22.8902 18.5538 18.6316 19.4963 15.7211 21.102C12.5704 22.8399 9.5184 25.7093 11.9432 29.1502C16.806 36.0501 35.6562 36.9794 44.2487 32.2444C46.8069 30.8347 50.62 28.0598 48.0366 24.1787C46.5314 21.9173 43.0049 20.1766 39.3535 19.2462C35.2879 18.2103 31.1319 17.9074 26.7311 18.2525Z" fill="#3D3D3D"/>
<path fill-rule="evenodd" clip-rule="evenodd" d="M30.077 41.2674C35.7517 41.2623 41.9619 40.1553 46.3122 37.8112C48.4832 36.6416 50.2961 35.3629 51.4165 33.4512C52.7423 31.1891 52.0546 27.7868 50.2828 26.5613C50.083 29.1133 52.6021 32.5676 44.323 36.4664C40.4873 38.2727 34.9795 39.2399 30.077 39.2123C23.7052 39.1766 14.869 37.7073 10.9302 33.1733C8.45676 30.326 9.85053 28.5777 9.71639 26.5634C7.88783 28.1193 7.17048 30.8619 8.56895 33.4316C11.6542 39.1007 23.1152 41.274 30.077 41.2674Z" fill="#3D3D3D"/>
<path fill-rule="evenodd" clip-rule="evenodd" d="M28.67 24.0342C20.7492 25.0084 24.3309 30.2787 31.5983 29.2894C33.3743 29.0477 37.3261 27.6803 35.3157 25.5875C34.0164 24.2352 31.137 23.7308 28.67 24.0342Z" fill="#AAD4D0"/>
<rect x="1" y="1" width="58" height="58" rx="4" stroke="#AAD4D0" stroke-width="2"/>
</svg>
