<svg width="60" height="60" viewBox="0 0 60 60" fill="none" xmlns="http://www.w3.org/2000/svg">
<path fill-rule="evenodd" clip-rule="evenodd" d="M26.5297 24.5115C21.9083 25.0406 17.4708 26.7283 15.5148 29.5157C14.5667 30.8668 15.5255 30.4904 13.7858 31.7542C11.3937 33.4918 9.2461 36.1446 10.2555 39.5461C13.0396 48.9274 35.5998 51.0854 45.7074 44.4346C50.186 41.4878 52.1585 36.5357 46.6404 32.0316C45.2416 30.8897 45.7535 31.6717 44.7613 29.934C43.8746 28.3817 42.1545 27.2425 40.3897 26.3562C36.6869 24.4966 31.1225 23.9859 26.5297 24.5115Z" fill="#B7DDD9"/>
<path fill-rule="evenodd" clip-rule="evenodd" d="M27.3286 25.9568C24.4162 26.2489 21.6663 26.9145 19.4019 28.1678C17.4924 29.2249 14.8216 31.5159 16.7545 34.3027C22.4196 42.4711 48.5523 38.6965 43.1744 30.268C42.1803 28.7101 39.1318 27.2501 36.5768 26.6172C33.5641 25.871 30.4869 25.64 27.3286 25.9568Z" fill="#3D3D3D"/>
<path fill-rule="evenodd" clip-rule="evenodd" d="M45.3483 33.5977C45.4771 35.6865 45.1478 36.636 43.9418 37.8577C36.2566 45.6435 12.8944 42.4541 14.6911 33.6101C12.183 34.7972 9.50228 39.6231 16.2949 43.3387C23.6884 47.3832 36.3965 47.4059 43.7458 43.3095C50.2146 39.704 48.1043 35.0466 45.3483 33.5977Z" fill="#3D3D3D"/>
<path fill-rule="evenodd" clip-rule="evenodd" d="M28.654 21.4C28.4332 19.7296 28.2092 17.2249 29.4149 16.2243C30.8106 16.989 30.7448 19.3355 30.7028 21.1849C34.1032 19.3155 33.6272 16.2133 31.6716 13.2484L30.0823 11.3078C29.7077 10.977 30.0803 11.2247 29.6231 11C28.9962 12.9947 27.1772 13.9386 26.3308 15.9334C25.3182 18.32 26.7834 20.8423 28.654 21.4Z" fill="#AAD4D0"/>
<path fill-rule="evenodd" clip-rule="evenodd" d="M20.8806 23.8C20.3348 22.1868 19.6806 21.1933 19.6043 19.2755C21.3405 19.4444 22.4316 21.1821 23.295 22.1525C23.7839 21.3508 23.5926 19.8022 23.359 18.9452C23.0433 17.7875 22.4069 17.2735 21.7391 16.6916C20.3576 15.4879 18.3843 14.9338 16.5049 14.2C16.4785 15.5365 16.2443 20.1168 16.5756 21.0913C17.0827 22.5829 19.1345 23.3788 20.8806 23.8Z" fill="#AAD4D0"/>
<path fill-rule="evenodd" clip-rule="evenodd" d="M35.6 22.0767L36.4877 21.0997C37.2335 20.0263 37.8698 18.9895 39.6748 18.8993C39.749 20.3267 39.7217 21.6632 38.8849 22.8895C38.6251 23.27 38.4641 23.2969 38.2384 23.8C40.2639 23.6288 42.0527 22.0805 42.7735 20.9293C43.2802 20.12 43.75 15.3537 43.5548 14.2351C40.7047 14.1409 39.0591 14.1106 37.5188 15.8597C36.1678 17.394 35.6954 19.5032 35.6 22.0767Z" fill="#AAD4D0"/>
<rect x="1" y="1" width="58" height="58" rx="4" stroke="#AAD4D0" stroke-width="2"/>
</svg>
