<svg width="30" height="24" viewBox="0 0 30 24" fill="none" xmlns="http://www.w3.org/2000/svg">
<path d="M28.3483 13.55V24H17.4711V15.75C17.4711 11.2833 18.0535 8.0667 19.2182 6.1C20.8338 3.4 23.3512 1.3667 26.7702 0L29.25 3.55C27.2211 4.2833 25.7182 5.4333 24.7413 7C23.7269 8.6 23.1633 10.7833 23.0506 13.55H28.3483ZM10.8772 13.55V24H0V15.75C0 11.2833 0.582401 8.0667 1.7471 6.1C3.3627 3.4 5.8801 1.3667 9.2991 0L11.7789 3.55C9.75 4.2833 8.2471 5.4333 7.2702 7C6.2558 8.6 5.6922 10.7833 5.5795 13.55H10.8772Z" fill="#CBEBE5"/>
</svg>
