<svg width="60" height="60" viewBox="0 0 60 60" fill="none" xmlns="http://www.w3.org/2000/svg">
<path fill-rule="evenodd" clip-rule="evenodd" d="M7 42.4012L8.11862 43.488C9.87894 42.7494 12.2376 39.2757 13.0725 38.7041C13.7622 39.2908 14.8806 41.0677 18.458 44.0256C19.7097 43.5148 22.3154 40.6158 23.3017 39.3344L24.1408 38.609C24.7269 39.9831 28.3351 43.3036 29.4448 44.0682C30.9145 43.3041 33.1662 40.6935 34.3193 39.352C34.8037 38.7884 34.5332 38.9735 35.0662 38.637C35.8726 40.0168 39.3165 43.5699 40.4316 44.0595C41.9747 42.8992 44.6105 40.4618 45.7629 38.6657C46.5069 39.179 47.235 40.357 48.0943 41.179C49.0475 42.0905 49.5613 42.7148 50.4784 43.5108C51.2848 43.2553 51.4614 42.8751 52 42.3658C51.2327 41.6078 47.7296 38.3823 47.2561 37.2183C46.9956 36.5783 49.1483 33.27 49.9018 30.2556C50.8595 26.4235 50.9981 16.3405 46.7107 15.1345C41.4081 13.643 38.7996 26.6681 44.205 35.9689C45.0074 37.3496 43.93 37.9827 43.0312 39.0561C42.1679 40.0876 41.4018 40.7682 40.4316 41.6305C39.8729 41.298 35.7324 37.6238 36.413 36.3332C37.656 33.9761 38.5514 32.233 39.1573 29.3651C39.9809 25.4657 39.7694 15.1711 35.0294 15.0172C30.0463 14.8554 29.9375 25.5712 30.6843 29.2103C31.2063 31.7536 32.1719 34.1121 33.381 36.2171C34.0133 37.318 32.8351 38.1405 32.0698 39.0769C31.3903 39.9082 30.207 41.1374 29.4448 41.6229C27.1183 39.6456 27.6516 40.0073 25.8301 37.8735C24.1516 35.9069 26.8817 35.9953 28.2053 29.3885C28.9872 25.4866 28.8914 15.1106 24.0517 15.0183C21.3815 14.9672 20.1785 18.3888 19.7566 20.5926C19.2231 23.3784 19.2196 26.4185 19.7328 29.179C21.2212 37.1839 24.5177 35.349 21.1392 39.1278C20.3159 40.0485 19.3408 40.8138 18.7117 41.6601C17.5273 41.2565 15.8046 38.9212 14.991 37.9401C13.1597 35.7322 15.9391 36.2225 17.3159 29.1155C18.0582 25.2849 17.832 13.8045 12.3598 15.1016C7.66104 16.2154 7.59322 27.6784 10.1484 33.5532C10.4566 34.2613 11.7725 36.574 11.7286 36.9617C11.6058 38.049 7.61352 41.5199 7 42.4012Z" fill="#AAD4D0"/>
<path fill-rule="evenodd" clip-rule="evenodd" d="M34.8671 34.9214C37.4623 32.4742 39.3364 19.5001 35.0077 16.7341C32.5195 17.6483 32.2464 22.9845 32.3008 25.6171C32.3752 29.1993 33.4033 32.1775 34.8671 34.9214Z" fill="#3D3D3D"/>
<path fill-rule="evenodd" clip-rule="evenodd" d="M24.0388 34.9068C25.4299 32.3643 26.4886 29.2888 26.6088 25.9908C26.7196 22.9474 26.611 18.2626 24.0591 16.7642C19.8139 18.1151 21.2778 32.2545 24.0388 34.9068Z" fill="#3D3D3D"/>
<path fill-rule="evenodd" clip-rule="evenodd" d="M45.8258 34.9083C47.3211 33.3254 48.3995 28.5246 48.4979 25.9852C48.5787 23.9012 48.0835 16.6597 45.8502 16.8395C43.6207 17.0189 43.1933 23.7148 43.2538 25.8005C43.3413 28.8215 44.2987 32.6598 45.8258 34.9083Z" fill="#3D3D3D"/>
<path fill-rule="evenodd" clip-rule="evenodd" d="M10.4142 25.4251C10.4215 27.9784 11.5884 33.3817 13.0725 34.8751C15.7285 31.6868 17.2384 18.5814 13.0725 16.76C10.7207 17.5518 10.4067 22.8188 10.4142 25.4251Z" fill="#3D3D3D"/>
<rect x="1" y="1" width="58" height="58" rx="4" stroke="#AAD4D0" stroke-width="2"/>
</svg>
