<svg width="28" height="28" viewBox="0 0 28 28" fill="none" xmlns="http://www.w3.org/2000/svg">
<path fill-rule="evenodd" clip-rule="evenodd" d="M14 22.2303C18.5455 22.2303 22.2303 18.5455 22.2303 14C22.2303 9.45453 18.5455 5.7697 14 5.7697C9.45453 5.7697 5.7697 9.45453 5.7697 14C5.7697 15.6171 6.23605 17.1252 7.04159 18.3973L6.17395 21.9346L9.69857 21.0182C10.9503 21.787 12.4234 22.2303 14 22.2303ZM14 24C19.5228 24 24 19.5228 24 14C24 8.47715 19.5228 4 14 4C8.47715 4 4 8.47715 4 14C4 15.7651 4.45734 17.4235 5.25999 18.863L4 23.9998L9.04509 22.6881C10.5057 23.5229 12.1971 24 14 24Z" fill="#00A859"/>
<path d="M12.1715 11.3911L11.5193 9.76066C11.4107 9.54327 11.302 9.43457 10.9759 9.43457C9.56291 9.43457 8.8324 11.1737 9.01937 11.8259C9.67165 14.7607 13.1499 18.4563 16.8454 18.6737C17.6063 18.7824 18.5865 18.2568 19.0193 17.152C19.1123 16.8247 19.128 16.4998 18.8019 16.2824L17.0628 15.4128C16.7367 15.3041 16.5193 15.4128 16.3019 15.6302L15.7586 16.3911C15.5412 16.7172 15.2524 16.6189 14.9976 16.4998C13.4792 15.643 12.7645 15.0264 11.7367 13.6737C11.5716 13.4563 11.5193 13.1302 11.7367 12.9128L12.0628 12.5867C12.3889 12.2607 12.343 11.8444 12.1715 11.3911Z" fill="#00A859"/>
</svg>
